<svg width="24" height="24" viewBox="0 0 24 24" fill="none" xmlns="http://www.w3.org/2000/svg">
<path fill-rule="evenodd" clip-rule="evenodd" d="M11.9999 3C7.03139 3 2.99994 7.03145 2.99994 12C2.99994 16.9686 7.03139 21 11.9999 21C16.9587 21 20.9999 16.9686 20.9999 12C20.9999 7.03145 16.9587 3 11.9999 3ZM17.9446 7.14859C19.0183 8.45662 19.6626 10.1258 19.6821 11.9317C19.4283 11.8829 16.8903 11.3655 14.3329 11.6876C14.2743 11.5607 14.2255 11.4241 14.1669 11.2874C14.0107 10.9165 13.8351 10.5358 13.6593 10.1746C16.4901 9.0228 17.7786 7.36334 17.9446 7.14859ZM11.9999 4.32755C13.9522 4.32755 15.7385 5.05966 17.0954 6.26031C16.9587 6.45553 15.7971 8.00759 13.0639 9.03253C11.8047 6.71909 10.4088 4.82538 10.1941 4.53254C10.7699 4.39588 11.3752 4.32755 11.9999 4.32755ZM8.7299 5.04989C8.93488 5.32321 10.3014 7.22668 11.5802 9.49131C7.98801 10.448 4.81556 10.4284 4.47391 10.4284C4.97174 8.04664 6.58237 6.06507 8.7299 5.04989ZM4.30797 12.0098C4.30797 11.9317 4.30797 11.8536 4.30797 11.7755C4.63985 11.7852 8.3687 11.8341 12.2049 10.6822C12.4294 11.1117 12.6344 11.551 12.8296 11.9902C12.732 12.0195 12.6246 12.0488 12.527 12.0781C8.56393 13.3568 6.45547 16.8514 6.27977 17.1442C5.05959 15.7874 4.30797 13.9816 4.30797 12.0098ZM11.9999 19.692C10.2233 19.692 8.58346 19.0868 7.28519 18.0716C7.42185 17.7885 8.98365 14.782 13.3177 13.269C13.3372 13.2592 13.347 13.2592 13.3665 13.2495C14.45 16.051 14.8893 18.4034 15.0064 19.077C14.0791 19.4772 13.0639 19.692 11.9999 19.692ZM16.2851 18.3742C16.2071 17.9056 15.7971 15.6605 14.7916 12.898C17.2027 12.5173 19.3112 13.1421 19.5748 13.23C19.2429 15.3677 18.0129 17.2126 16.2851 18.3742Z" fill="black"/>
</svg>
